<?xml version="1.0" encoding="UTF-8"?>
<svg xmlns="http://www.w3.org/2000/svg" viewBox="0 0 1024 915" fill="none">
<path d="M0 0 C0 4.18443848 -1.80426015 5.34218762 -4.5625 8.4375 C-10.8241819 15.68915359 -15.93223555 23.24339726 -18.6875 32.5 C-19.88053136 35.71043203 -20.48182344 36.73023175 -23.55859375 38.33203125 C-26.68342153 39.33118001 -29.82705638 40.16814212 -33 41 C-59.48250935 50.70023843 -87.29179498 80.81697739 -105 102 C-105.46954102 102.56106445 -105.93908203 103.12212891 -106.42285156 103.70019531 C-141.91959914 146.28316976 -163.01069096 196.00478612 -162.625 252 C-162.62268372 253.05562134 -162.62036743 254.11124268 -162.61798096 255.19885254 C-162.5379026 273.78192747 -160.62670352 290.99448061 -156 309 C-155.65557861 310.41659912 -155.65557861 310.41659912 -155.30419922 311.86181641 C-153.79857037 318.00049644 -151.98968051 324.00197248 -150 330 C-149.4735791 331.59376465 -149.4735791 331.59376465 -148.93652344 333.21972656 C-141.92379386 354.17548187 -133.60978194 374.5855181 -125.24931335 395.03155518 C-97.78674798 462.24290247 -97.78674798 462.24290247 -90 493 C-89.74379883 494.00836914 -89.48759766 495.01673828 -89.22363281 496.05566406 C-87.31699959 503.67069734 -85.59007106 511.31282046 -84 519 C-83.72663818 520.28970703 -83.72663818 520.28970703 -83.44775391 521.60546875 C-75.90668891 558.88309156 -80.21947694 600.16424478 -92 636 C-92.25475098 636.80872559 -92.50950195 637.61745117 -92.77197266 638.45068359 C-103.07106745 671.07847418 -120.74509551 698.35774323 -143 724 C-144.09054687 725.26070312 -144.09054687 725.26070312 -145.203125 726.546875 C-154.96034679 737.60505969 -165.33730894 747.9585112 -177 757 C-177.95777344 757.77472656 -178.91554688 758.54945313 -179.90234375 759.34765625 C-204.43620161 778.86955323 -233.76161401 794.59167596 -264 803 C-263.65011209 799.85100878 -263.04362446 799.036913 -260.5625 796.9375 C-254.06463769 789.48873101 -255.44800905 776.62938268 -255.84765625 767.19970703 C-257.79556532 739.07364816 -278.30138809 712.82927645 -293.49902344 690.23608398 C-310.48228435 664.9562802 -327.55327394 636.89600742 -322.3828125 605.21875 C-314.55156105 575.00259395 -291.56046864 552.63132667 -267 535 C-266.13487793 534.37577148 -265.26975586 533.75154297 -264.37841797 533.10839844 C-261.6763854 531.16572268 -258.9658989 529.23573567 -256.25 527.3125 C-255.4041333 526.71171631 -254.5582666 526.11093262 -253.68676758 525.49194336 C-252.88779053 524.93385986 -252.08881348 524.37577637 -251.265625 523.80078125 C-250.56211914 523.30747314 -249.85861328 522.81416504 -249.13378906 522.3059082 C-246.83316466 520.89789448 -244.52636206 519.93316325 -242 519 C-240.81828879 522.46678813 -240.92780578 523.82685799 -242.36328125 527.26953125 C-242.99917586 528.45803281 -243.64941349 529.6389523 -244.3125 530.8125 C-250.44750809 541.84076104 -252.15222611 554.21814884 -249.125 566.5703125 C-239.20456748 593.65570391 -218.31682397 611.83903308 -192.98925781 624.09277344 C-184.50919243 627.96021612 -175.37289237 630.89265642 -166 630 C-161.46635896 625.93134779 -161.04355859 621.58119507 -160.69140625 615.77734375 C-160.18293111 601.91387641 -162.92950494 593.10215897 -172.375 582.75 C-174.2244527 580.80573556 -176.10753717 578.90326147 -178 577 C-178.72832031 576.24589844 -179.45664062 575.49179687 -180.20703125 574.71484375 C-186.89508436 567.86849352 -194.21734918 561.80152115 -201.57275391 555.6940918 C-205.77849895 552.1977255 -209.91294901 548.63383345 -214 545 C-214.74378906 544.34902344 -215.48757813 543.69804688 -216.25390625 543.02734375 C-218.86676755 540.71645037 -221.43990312 538.36925984 -224 536 C-224.78479736 535.27635254 -224.78479736 535.27635254 -225.58544922 534.53808594 C-240.01422025 521.10630438 -252.53252089 503.14219592 -253.4375 482.75 C-252.85629627 465.77400773 -244.69517848 452.60581611 -234 440 C-233.48566406 439.36320312 -232.97132813 438.72640625 -232.44140625 438.0703125 C-229.20855644 434.12781273 -225.65792064 430.83253882 -221.734375 427.578125 C-219.77231826 425.9207532 -219.77231826 425.9207532 -218 423 C-217.34 423 -216.68 423 -216 423 C-216 422.34 -216 421.68 -216 421 C-215.34 421 -214.68 421 -214 421 C-215.84765334 425.84120706 -218.18837216 430.36497105 -220.5625 434.96484375 C-225.46052747 445.30660283 -225.87943853 458.27430142 -222.5 469.25 C-217.48803119 481.85051315 -210.76339608 493.48412663 -201 503 C-199 505 -199 505 -199 507 C-198.13375 507.3403125 -198.13375 507.3403125 -197.25 507.6875 C-194.40469122 509.34726345 -193.06346666 511.42066667 -191 514 C-189.19151398 515.67834683 -187.31959363 517.27044937 -185.4453125 518.875 C-181.4045085 522.38649741 -177.49699476 526.04141321 -173.578125 529.6875 C-171.10981897 531.98283242 -168.61757071 534.24835261 -166.109375 536.5 C-155.51124913 546.07869587 -147.22669099 555.47791688 -142 569 C-141.6803125 569.78761719 -141.360625 570.57523438 -141.03125 571.38671875 C-136.473517 584.15259128 -138.57619209 596.05419204 -144.03759766 607.98388672 C-149.95937141 620.38926664 -157.48749253 631.24150242 -166 642 C-166.80824219 643.03382813 -167.61648438 644.06765625 -168.44921875 645.1328125 C-172.68829167 650.44460021 -177.17927663 655.31082969 -182.046875 660.05078125 C-184.22894221 662.22848432 -186.16330041 664.52444838 -188 667 C-192.32563669 666.44945719 -195.63032655 665.42005303 -199.4921875 663.41015625 C-200.51932861 662.8780957 -201.54646973 662.34603516 -202.60473633 661.79785156 C-203.68392334 661.22518555 -204.76311035 660.65251953 -205.875 660.0625 C-206.98963623 659.4756543 -208.10427246 658.88880859 -209.25268555 658.28417969 C-237.42747745 643.29728481 -267.01358531 624.23505056 -277.0546875 592.3828125 C-280.9826475 578.32655893 -279.51982325 564.68053645 -275 551 C-284.63961715 558.27889458 -292.12745749 569.91680114 -294 582 C-295.37901202 604.01115335 -288.2447774 623.88853953 -278 643 C-277.53609863 643.86641113 -277.07219727 644.73282227 -276.59423828 645.62548828 C-271.77350349 654.59535795 -266.88934132 663.52098896 -261.75 672.3125 C-250.12606913 692.54585685 -240.34890484 714.64615606 -240.5625 738.3125 C-240.56934814 739.49021973 -240.57619629 740.66793945 -240.58325195 741.88134766 C-240.84379933 756.07971583 -244.64822938 767.89296896 -250 781 C-250.94232898 783.4356372 -251.8799447 785.87310394 -252.8125 788.3125 C-253.54138375 790.20844212 -254.27050161 792.10429429 -255 794 C-232.74573476 784.57370977 -212.63285994 774.10984901 -193 760 C-192.38785645 759.56187988 -191.77571289 759.12375977 -191.14501953 758.67236328 C-181.7233962 751.8647071 -173.34022905 744.06744969 -165 736 C-164.4436084 735.46552246 -163.8872168 734.93104492 -163.31396484 734.38037109 C-156.34576321 727.66502226 -149.89147344 720.69541132 -144 713 C-143.19949219 711.96617187 -142.39898437 710.93234375 -141.57421875 709.8671875 C-127.94501507 691.82086587 -120.13122036 672.16231876 -115.1875 650.25 C-114.98020264 649.34024414 -114.77290527 648.43048828 -114.55932617 647.49316406 C-99.99966707 578.88898377 -126.29502857 509.30823042 -153.3125 447.5 C-186.10300793 372.44528196 -186.10300793 372.44528196 -194.43115234 334.54833984 C-194.80374957 332.87916823 -195.1991428 331.21488462 -195.61962891 329.55712891 C-199.31091093 314.97554523 -199.36704443 300.45426387 -199.375 285.5 C-199.37699402 284.50249725 -199.37898804 283.50499451 -199.38104248 282.4772644 C-199.37840609 270.81592382 -198.98186347 259.51613431 -197 248 C-196.87012695 247.20722656 -196.74025391 246.41445313 -196.60644531 245.59765625 C-188.99105926 202.25806085 -166.95205881 162.86182932 -141 128 C-140.53529297 127.37399902 -140.07058594 126.74799805 -139.59179688 126.10302734 C-134.75673113 119.61770167 -129.70812254 113.42250064 -124.22265625 107.47265625 C-121.84175645 104.82395752 -119.60659749 102.08783697 -117.375 99.3125 C-114.31394354 95.5286941 -111.15790696 92.03448759 -107.66015625 88.65625 C-105.94475165 86.94488165 -104.38202143 85.15810592 -102.8125 83.3125 C-96.22733417 75.68913235 -88.9861967 68.5538922 -81.3125 62.03125 C-78.70328688 59.73937361 -76.1823406 57.3661521 -73.65673828 54.98291016 C-67.81536487 49.4717706 -61.926285 44.13362054 -55.64453125 39.12109375 C-52.88123798 36.90474479 -50.19443786 34.61190271 -47.5 32.3125 C-32.88695539 20.14127243 -17.18699835 8.2908185 0 0 Z " fill="currentColor" transform="translate(549,90)"/>
<path d="M0 0 C1.36636904 4.09910712 -0.18486675 6.65955101 -1.6875 10.5 C-8.74498589 29.59599949 -12.73259389 49.57750463 -4.74609375 69.05859375 C1.75882176 82.97237761 11.74025618 92.85968552 24.5625 101 C25.15611328 101.37898438 25.74972656 101.75796875 26.36132812 102.1484375 C38.69020025 109.73152087 52.01415593 115.42926848 65.36380005 120.92721558 C69.54663174 122.65296793 73.71869877 124.40433127 77.890625 126.15625 C79.09882652 126.66356911 79.09882652 126.66356911 80.33143616 127.18113708 C104.55116984 137.3741192 128.40912862 148.78937819 139.05078125 174.54296875 C144.53271343 194.50803038 136.38877682 213.14316435 126.75244141 230.20947266 C120.64974687 240.79775118 113.81711102 250.66564084 106.30126953 260.29345703 C105.13219951 261.82662767 104.02825376 263.4089402 102.93359375 264.99609375 C102.35738281 265.82238281 101.78117188 266.64867187 101.1875 267.5 C100.72730469 268.1909375 100.26710938 268.881875 99.79296875 269.59375 C97.0035857 271.78150141 94.35099197 271.37543344 91 271 C56.37074844 266.27705263 12.62034409 252.96495533 -10.125 224.32421875 C-11.83297311 221.92238157 -13.45002362 219.50607594 -15 217 C-15.78503906 215.81470703 -15.78503906 215.81470703 -16.5859375 214.60546875 C-21.60894285 205.35037326 -21.58041847 193.33038664 -22 183 C-31.2612257 200.63099653 -33.54519234 215.57152373 -27.68457031 234.96289062 C-22.6946253 249.81171416 -12.60729546 261.77967346 -2 273 C-1.31550781 273.73734375 -0.63101563 274.4746875 0.07421875 275.234375 C9.93861888 285.51814889 21.79593106 293.62252513 33.24707031 302.01831055 C38.95281208 306.20770822 44.5349885 310.49987925 50 315 C51.29387615 316.0460613 52.58818868 317.09158294 53.8828125 318.13671875 C71.174742 332.15253076 87.25431456 346.16691391 98 366 C98.43828125 366.75023437 98.8765625 367.50046875 99.328125 368.2734375 C107.85969408 383.74333082 110.29346244 404.36474474 105.55957031 421.44116211 C104.72812408 424.0258896 103.79380705 426.55196462 102.77832031 429.06982422 C101.96516674 431.08638386 101.21208984 433.11976193 100.4609375 435.16015625 C96.72329188 445.02329362 91.82611099 453.93525086 86.29492188 462.89501953 C84.53515077 465.75564292 82.81495147 468.63930148 81.09326172 471.52294922 C79.40279589 474.35303971 77.70148396 477.176523 76 480 C70.05978262 479.48472746 65.40779508 476.98307665 60.1875 474.3125 C58.91036133 473.67924805 58.91036133 473.67924805 57.60742188 473.03320312 C51.77380843 470.08751713 46.35487686 466.74281297 41 463 C40.9484375 463.8765625 40.896875 464.753125 40.84375 465.65625 C38.88912653 487.51249422 29.45214762 507.4745959 20 527 C19.34458097 528.37868238 18.68957242 529.75756006 18.03515625 531.13671875 C14.30230289 538.84884856 14.30230289 538.84884856 12 540 C9.27362542 538.77116893 6.68689344 537.48392914 4.0625 536.0625 C3.29341309 535.64863037 2.52432617 535.23476074 1.73193359 534.80834961 C-11.16471541 527.73830444 -21.64917981 518.3676508 -32 508 C-32.59941406 507.44699219 -33.19882812 506.89398437 -33.81640625 506.32421875 C-47.63099704 493.37497146 -57.39871283 476.13145555 -67 460 C-68.47958858 464.40971621 -69.94944442 468.82135901 -71.359375 473.25390625 C-74.64076955 483.47337448 -78.51119431 493.25212018 -83 503 C-83.66 503 -84.32 503 -85 503 C-84.93071289 502.37343506 -84.86142578 501.74687012 -84.79003906 501.10131836 C-80.857842 462.42655098 -87.34796352 413.30407296 -105 378 C-105.344412 373.48717818 -104.70954077 370.70462183 -102.5859375 366.734375 C-102.07160156 365.76113281 -101.55726563 364.78789062 -101.02734375 363.78515625 C-100.48207031 362.78355469 -99.93679688 361.78195312 -99.375 360.75 C-98.59189453 359.27080078 -98.59189453 359.27080078 -97.79296875 357.76171875 C-94.76367107 352.0845905 -91.57488389 346.53745712 -88.18603516 341.06738281 C-86.86335106 338.91969532 -86.86335106 338.91969532 -86 336 C-85.34 336 -84.68 336 -84 336 C-83.731875 337.20011719 -83.46375 338.40023438 -83.1875 339.63671875 C-74.13590647 378.73325079 -54.60696478 415.73027292 -31 448 C-30.4107373 448.82032715 -30.4107373 448.82032715 -29.80957031 449.65722656 C-17.70883013 466.43758909 -2.25682331 484.41995409 17 493 C19.73568289 493.24723344 19.73568289 493.24723344 22 493 C24.21639396 488.56721208 23.29332802 483.3540265 21.8203125 478.80078125 C21.27140029 477.2986712 20.70539624 475.80272798 20.125 474.3125 C19.81908936 473.50232422 19.51317871 472.69214844 19.19799805 471.85742188 C16.70446751 465.42424823 13.81543995 459.20870615 10.8125 453 C-0.84496416 428.83840373 -0.84496416 428.83840373 2 417 C6.10001123 405.81063218 12.16222006 395.35512874 18 385 C22.24874587 386.90427897 24.65734415 389.83730412 27.5625 393.375 C28.63390611 394.64970867 29.70685321 395.92312353 30.78125 397.1953125 C31.32007813 397.83500977 31.85890625 398.47470703 32.4140625 399.13378906 C45.13400856 414.10165662 63.99446737 435.89944674 85 438 C88.44653716 424.64466849 83.7624203 410.78503239 77.11328125 399.1953125 C69.01261561 386.94698626 58.35686394 376.51768351 46.9453125 367.37890625 C44.34489046 365.27856537 41.79560949 363.13519145 39.25756836 360.9609375 C33.98390604 356.44358476 28.62190522 352.11250097 23.09082031 347.91259766 C16.54094579 342.92286958 10.18533951 337.69617052 3.81591797 332.47949219 C2.24155117 331.19680023 0.65503764 329.92904462 -0.93359375 328.6640625 C-22.56361453 311.37290176 -40.74604883 292.49122537 -50 266 C-50.27884033 265.25959473 -50.55768066 264.51918945 -50.8449707 263.75634766 C-53.34929227 256.50882479 -53.41417046 249.61308392 -53.3125 242 C-53.31572266 240.7934375 -53.31894531 239.586875 -53.32226562 238.34375 C-53.26134419 228.15325517 -51.83707095 219.41521284 -48 210 C-47.51891258 208.71165311 -47.03976014 207.42258209 -46.5625 206.1328125 C-40.05675717 189.18713209 -30.16031487 174.87551607 -19.30859375 160.43359375 C-15.68516987 155.60823344 -12.25181884 150.66998442 -8.84375 145.69140625 C-6.60762017 142.4272252 -4.31377091 139.20942416 -2 136 C0.46800047 137.15173355 2.04783565 138.04783565 4 140 C3.81357125 142.4927328 3.51984002 144.85201427 3.125 147.3125 C0.92829337 163.08386317 1.53176811 176.67660266 10.84375 190.25 C28.72961705 213.06096087 58.41567821 227.52049486 87 231 C90.12627327 231.20330544 93.24275566 231.27556316 96.375 231.3125 C97.18710937 231.34150391 97.99921875 231.37050781 98.8359375 231.40039062 C104.60695329 231.46050537 109.2838238 230.48671593 114 227 C117.42180553 222.53444359 118.68811213 217.94831433 118.37109375 212.34765625 C116.4299746 200.06752354 108.00056995 191.984151 98.4831543 184.71557617 C94.38676433 181.8854383 90.01744755 179.81816733 85.5 177.75 C84.01862549 177.05620239 84.01862549 177.05620239 82.50732422 176.34838867 C73.01536142 171.93336624 63.41901972 167.75282309 53.828125 163.55859375 C22.77543426 149.95412544 -14.99677895 130.20616199 -28.80957031 97.05712891 C-35.61511889 79.10847737 -36.71574275 59.52284832 -28.99023438 41.66601562 C-23.91293764 30.74851228 -17.68417843 21.23603205 -10 12 C-8.49779399 10.10591417 -6.99762378 8.210211 -5.5 6.3125 C-3.7274172 4.09313916 -2.00850096 2.00850096 0 0 Z " fill="currentColor" transform="translate(562,139)"/>
</svg>
